HIERARCHY
ROOT Hips
{
	OFFSET 0.000000 0.000000 0.000000
	CHANNELS 6 Xposition Yposition Zposition Zrotation Yrotation Xrotation 
	JOINT LHipJoint
	{
		OFFSET 0.000000 0.000000 0.000000
		CHANNELS 3 Zrotation Yrotation Xrotation
		JOINT LeftUpLeg
		{
			OFFSET 1.363060 -1.794630 0.839290
			CHANNELS 3 Zrotation Yrotation Xrotation
			JOINT LeftLeg
			{
				OFFSET 2.448110 -6.726130 0.000000
				CHANNELS 3 Zrotation Yrotation Xrotation
				JOINT LeftFoot
				{
					OFFSET 2.562200 -7.039590 0.000000
					CHANNELS 3 Zrotation Yrotation Xrotation
					JOINT LeftToeBase
					{
						OFFSET 0.157640 -0.433110 2.322550
						CHANNELS 3 Zrotation Yrotation Xrotation
						End Site
						{
							OFFSET 0.000000 0.000000 0.000000
						}
					}
				}
			}
		}
	}
	JOINT RHipJoint
	{
		OFFSET 0.000000 0.000000 0.000000
		CHANNELS 3 Zrotation Yrotation Xrotation
		JOINT RightUpLeg
		{
			OFFSET -1.305520 -1.794630 0.839290
			CHANNELS 3 Zrotation Yrotation Xrotation
			JOINT RightLeg
			{
				OFFSET -2.542530 -6.985550 0.000000
				CHANNELS 3 Zrotation Yrotation Xrotation
				JOINT RightFoot
				{
					OFFSET -2.568260 -7.056230 0.000000
					CHANNELS 3 Zrotation Yrotation Xrotation
					JOINT RightToeBase
					{
						OFFSET -0.164730 -0.452590 2.363150
						CHANNELS 3 Zrotation Yrotation Xrotation
						End Site
						{
							OFFSET 0.000000 0.000000 0.000000
						}
					}
				}
			}
		}
	}
	JOINT LowerBack
	{
		OFFSET 0.000000 0.000000 0.000000
		CHANNELS 3 Zrotation Yrotation Xrotation
		JOINT Spine
		{
			OFFSET 0.028270 2.035590 -0.193380
			CHANNELS 3 Zrotation Yrotation Xrotation
			JOINT Spine1
			{
				OFFSET 0.056720 2.048850 -0.042750
				CHANNELS 3 Zrotation Yrotation Xrotation
				JOINT Neck
				{
					OFFSET 0.000000 0.000000 0.000000
					CHANNELS 3 Zrotation Yrotation Xrotation
					JOINT Neck1
					{
						OFFSET -0.054170 1.746240 0.172020
						CHANNELS 3 Zrotation Yrotation Xrotation
						JOINT Head
						{
							OFFSET 0.104070 1.761360 -0.123970
							CHANNELS 3 Zrotation Yrotation Xrotation
							End Site
							{
								OFFSET 0.000000 0.000000 0.000000
							}
						}
					}
				}
				JOINT LeftShoulder
				{
					OFFSET 0.000000 0.000000 0.000000
					CHANNELS 3 Zrotation Yrotation Xrotation
					JOINT LeftArm
					{
						OFFSET 3.362410 1.200890 -0.311210
						CHANNELS 3 Zrotation Yrotation Xrotation
						JOINT LeftForeArm
						{
							OFFSET 4.983000 -0.000000 -0.000000
							CHANNELS 3 Zrotation Yrotation Xrotation
							JOINT LeftHand
							{
								OFFSET 3.483560 -0.000000 -0.000000
								CHANNELS 3 Zrotation Yrotation Xrotation
								JOINT LeftFingerBase
								{
									OFFSET 0.000000 0.000000 0.000000
									CHANNELS 3 Zrotation Yrotation Xrotation
									JOINT LeftHandIndex1
									{
										OFFSET 0.715260 -0.000000 -0.000000
										CHANNELS 3 Zrotation Yrotation Xrotation
										End Site
										{
											OFFSET 0.000000 0.000000 0.000000
										}
									}
								}
								JOINT LThumb
								{
									OFFSET 0.000000 0.000000 0.000000
									CHANNELS 3 Zrotation Yrotation Xrotation
									End Site
									{
										OFFSET 0.000000 0.000000 0.000000
									}
								}
							}
						}
					}
				}
				JOINT RightShoulder
				{
					OFFSET 0.000000 0.000000 0.000000
					CHANNELS 3 Zrotation Yrotation Xrotation
					JOINT RightArm
					{
						OFFSET -3.136600 1.374050 -0.404650
						CHANNELS 3 Zrotation Yrotation Xrotation
						JOINT RightForeArm
						{
							OFFSET -5.241900 -0.000000 -0.000000
							CHANNELS 3 Zrotation Yrotation Xrotation
							JOINT RightHand
							{
								OFFSET -3.444170 -0.000000 -0.000000
								CHANNELS 3 Zrotation Yrotation Xrotation
								JOINT RightFingerBase
								{
									OFFSET 0.000000 0.000000 0.000000
									CHANNELS 3 Zrotation Yrotation Xrotation
									JOINT RightHandIndex1
									{
										OFFSET -0.622530 -0.000000 -0.000000
										CHANNELS 3 Zrotation Yrotation Xrotation
										End Site
										{
											OFFSET 0.000000 0.000000 0.000000
										}
									}
								}
								JOINT RThumb
								{
									OFFSET 0.000000 0.000000 0.000000
									CHANNELS 3 Zrotation Yrotation Xrotation
									End Site
									{
										OFFSET 0.000000 0.000000 0.000000
									}
								}
							}
						}
					}
				}
			}
		}
	}
}
MOTION
Frames: 7
Frame Time: 0.008333
9.411651 17.876039 -8.859452 -172.874213 -0.563427 -176.017774 -4.900289 -2.927396 -0.468291 -6.499391 -3.129624 -16.487335 1.519157 10.228188 27.956297 0.779968 -7.855675 -2.439625 0.234000 3.113100 8.593900 4.144314 2.637452 -0.443638 25.064823 -1.204315 -8.229736 -0.897015 -8.876189 22.763240 -1.098680 5.032126 -6.913021 -0.614500 -5.016900 13.956900 6.917978 0.917031 5.073123 2.261230 1.357230 -3.466293 2.515438 0.646860 -0.747234 -8.685607 -1.658023 -14.766612 2.333710 -1.560180 13.303157 2.131900 -1.782500 10.021700 0.041795 -1.600149 0.450393 -90.603562 4.221751 27.124983 14.579193 -25.255622 -3.332234 0.110766 0.552147 -0.929963 18.836115 20.686048 6.647800 -7.125000 0.000000 0.000000 -9.776700 50.869100 -1.425500 1.966070 1.414121 -0.202539 79.508563 4.972973 19.104033 -17.742117 26.934516 -4.754639 0.326379 -0.077070 -13.521103 -20.121419 10.117442 -3.793500 7.125000 0.000000 0.000000 4.681300 -19.068900 2.904700 
9.400022 17.861276 -8.909707 -172.669107 -0.606555 -176.112090 -4.889142 -2.917201 -0.454469 -6.305750 -3.006019 -16.342813 1.537999 10.254029 28.023715 0.818512 -8.115816 -2.917265 0.179500 2.729000 7.525200 4.134850 2.632824 -0.445023 25.282119 -1.287532 -7.907615 -0.885391 -8.857422 22.683735 -1.091623 4.937280 -7.043293 -0.556400 -4.778200 13.277000 7.051447 0.850212 5.022370 2.287050 1.260028 -3.431830 2.510615 0.595293 -0.637411 -8.643331 -1.706267 -14.794394 2.478360 -1.628018 13.248293 2.192300 -1.786100 10.002200 0.038747 -1.583572 0.454793 -90.525599 4.210248 27.246609 14.357084 -24.973310 -3.252644 0.132953 0.549593 -1.123462 19.922090 20.284876 6.919400 -7.125000 0.000000 0.000000 -8.607700 50.636600 -1.203300 1.962931 1.416796 -0.195165 79.758621 4.964286 18.824787 -17.584614 26.741706 -4.679722 0.327507 -0.083485 -13.429194 -20.130766 10.266326 -3.851900 7.125000 0.000000 0.000000 4.677600 -18.904200 2.919600 
9.387787 17.854097 -8.958445 -172.686663 -0.563037 -176.117984 -4.889788 -2.910048 -0.435290 -6.354573 -2.883556 -16.248309 1.545335 10.262295 28.037393 0.852062 -8.540260 -3.107267 0.163700 2.606500 7.185200 4.135471 2.627071 -0.445574 25.254926 -1.071798 -7.611256 -0.882007 -8.863687 22.688289 -1.056170 4.609285 -7.192695 -0.477000 -4.429400 12.287900 6.950212 0.780106 4.959346 2.292069 1.162677 -3.449817 2.574315 0.546233 -0.671403 -8.661287 -1.659117 -14.713926 2.636436 -1.575074 13.248684 2.279900 -1.750200 9.983800 0.036734 -1.572118 0.451824 -90.489894 4.227212 26.725639 13.990973 -24.487532 -3.115263 0.131688 0.547702 -0.223892 19.380744 20.523412 6.797600 -7.125000 0.000000 0.000000 -9.205100 50.794700 -1.324000 1.951227 1.419300 -0.198662 79.999373 4.640544 18.752844 -17.567215 26.722713 -4.671177 0.339452 -0.084652 -13.379244 -20.568078 10.249891 -3.939200 7.125000 0.000000 0.000000 4.359400 -18.883700 2.721700 
9.378889 17.855614 -9.007689 -172.792388 -0.464584 -176.121086 -4.891112 -2.900271 -0.400643 -6.526798 -2.625883 -16.108997 1.528579 10.235206 27.936722 0.851066 -8.791377 -2.795981 0.215600 2.989200 8.248600 4.140879 2.618142 -0.452881 25.146287 -0.575012 -7.290906 -0.896162 -8.917864 22.835239 -1.016682 4.191637 -7.529184 -0.445600 -4.282900 11.873900 6.749848 0.748446 4.927616 2.279639 1.122457 -3.484807 2.635748 0.527060 -0.743383 -8.629507 -1.591730 -14.794187 2.717578 -1.501046 13.385489 2.316900 -1.718000 10.074900 0.035553 -1.571208 0.441774 -90.445421 4.289688 26.679694 13.641535 -24.036432 -2.997948 0.139474 0.567694 -0.856696 20.420942 21.624412 7.555400 -7.125000 0.000000 0.000000 -8.558300 52.080000 -1.500800 1.941898 1.421922 -0.212650 80.261096 4.224276 18.539706 -17.632662 26.801797 -4.701445 0.346891 -0.080770 -13.234599 -20.871646 10.083564 -3.939200 7.125000 0.000000 0.000000 4.134400 -19.039800 2.566100 
9.369991 17.853996 -9.064314 -173.165240 -0.327867 -176.154819 -4.901291 -2.895305 -0.368738 -7.006482 -2.343544 -15.862460 1.500229 10.214273 27.824774 0.842766 -8.813213 -2.722718 0.274900 3.372500 9.317700 4.150335 2.615906 -0.461914 24.704655 -0.240683 -6.939038 -0.914201 -8.978214 22.996033 -1.009405 4.025053 -7.826463 -0.491900 -4.497000 12.479400 6.259941 0.713103 4.777607 2.233426 1.060814 -3.453585 2.753135 0.505181 -0.571068 -8.596759 -1.584361 -15.031605 2.766734 -1.477123 13.477862 2.330500 -1.699400 10.172200 0.030115 -1.559273 0.439905 -90.418989 4.289144 26.889364 13.502766 -23.882753 -2.963508 0.148403 0.593888 -1.936574 21.934511 23.045458 8.666400 -7.125000 0.000000 0.000000 -7.543800 53.796200 -1.638600 1.931635 1.419387 -0.214625 80.503909 4.173849 18.353105 -17.594604 26.746046 -4.678533 0.351786 -0.057738 -13.013247 -20.811791 9.176936 -3.576500 7.125000 0.000000 0.000000 4.150800 -20.032800 2.484300 
9.355632 17.848940 -9.119929 -173.689835 -0.176412 -176.208041 -4.922600 -2.895062 -0.344806 -7.658124 -2.139045 -15.622518 1.478912 10.217527 27.775328 0.844509 -8.794698 -3.004074 0.208400 2.939300 8.109900 4.159805 2.615990 -0.464438 24.083982 -0.014534 -6.562739 -0.925100 -9.019227 23.101090 -0.997433 3.854503 -8.020276 -0.525400 -4.645400 12.899800 5.590613 0.395535 4.650206 2.180357 1.037584 -3.412293 2.942055 0.681269 -0.421400 -8.472141 -1.537365 -15.063798 2.738186 -1.428838 13.432260 2.285000 -1.660800 10.141500 0.035063 -1.549162 0.447283 -90.447842 4.189679 25.446896 13.503724 -23.888654 -2.964009 0.089097 0.606417 1.757570 17.531998 25.755645 7.608900 -7.125000 0.000000 0.000000 -13.118800 55.678900 -3.481100 1.929540 1.412489 -0.209777 80.727814 4.176155 18.240549 -17.461085 26.570484 -4.609441 0.352500 -0.037536 -13.124723 -20.520378 8.514030 -3.267900 7.125000 0.000000 0.000000 4.347200 -20.777600 2.529500 
9.341678 17.846918 -9.160578 -173.742795 -0.166931 -176.203216 -4.922477 -2.892391 -0.327007 -7.779096 -1.932350 -15.584574 1.470131 10.202224 27.720747 0.833360 -8.907276 -2.643837 0.321500 3.644800 10.079400 4.158168 2.611827 -0.467138 24.017133 0.199405 -6.366700 -0.940409 -9.065336 23.230575 -0.979623 3.642987 -8.258983 -0.512900 -4.590600 12.744300 5.464226 0.349290 4.667405 2.193813 0.974146 -3.430163 3.044007 0.647901 -0.477572 -8.477124 -1.544178 -15.082423 2.767295 -1.441326 13.460294 2.295400 -1.666500 10.166100 0.042007 -1.550158 0.443313 -90.468289 4.177525 24.669607 13.206430 -23.472701 -2.848411 0.093943 0.582619 3.184575 16.574239 24.298997 6.794500 -7.125000 0.000000 0.000000 -13.392400 54.074800 -3.028900 1.930376 1.415693 -0.215289 80.868595 3.966097 18.168890 -17.346746 26.426292 -4.553980 0.355556 -0.040494 -13.470964 -20.528906 8.704368 -3.343200 7.125000 0.000000 0.000000 4.342100 -20.568700 2.547000 
